<svg xmlns="http://www.w3.org/2000/svg" width="191" height="1523" viewBox="-49 -21.5 191.5 1523">
<defs>
    <marker id="arrow" viewBox="-10 -4 20 8" markerWidth="10" markerHeight="10" orient="auto">
        <polygon points="-10,-4 0,0 -10,4" fill="#1b3966" stroke="none" />
    </marker>
</defs>
    <circle cx="36" cy="980" r="20" fill="#deebf7" stroke="#1b3966" stroke-width="3" />
    <text x="36" y="987" font-size="24" text-anchor="middle" fill="black">(2,1)</text>
    <path d="M 26,997 L 26,1004.5 Q 26,1007 27.0386,1036.98 L 39.9614,1410.02 L 41,1440" fill="none" stroke="#1b3966" stroke-width="3" stroke-dasharray="10,5" marker-end="url(#arrow)" />
    <path d="M 46,997 L 46,1004.5 Q 46,1007 45.6536,1037 L 41.3464,1410 L 41,1440" fill="none" stroke="#1b3966" stroke-width="3" marker-end="url(#arrow)" />
    <circle cx="7" cy="900" r="20" fill="#deebf7" stroke="#1b3966" stroke-width="3" />
    <text x="7" y="907" font-size="24" text-anchor="middle" fill="black">(3,2)</text>
    <path d="M -3,917 L -3,924.5 Q -3,927 6,935.5 L 24,952.5 L 33,961" fill="none" stroke="#1b3966" stroke-width="3" stroke-dasharray="10,5" marker-end="url(#arrow)" />
    <path d="M 17,917 L 39,961" fill="none" stroke="#1b3966" stroke-width="3" marker-end="url(#arrow)" />
    <circle cx="64" cy="900" r="20" fill="#deebf7" stroke="#1b3966" stroke-width="3" />
    <text x="64" y="907" font-size="24" text-anchor="middle" fill="black">(3,2)</text>
    <path d="M 54,917 L 46,963" fill="none" stroke="#1b3966" stroke-width="3" stroke-dasharray="10,5" marker-end="url(#arrow)" />
    <path d="M 74,917 L 74,924.5 Q 74,927 72.0742,956.938 L 42.9258,1410.06 L 41,1440" fill="none" stroke="#1b3966" stroke-width="3" marker-end="url(#arrow)" />
    <circle cx="7" cy="820" r="20" fill="#deebf7" stroke="#1b3966" stroke-width="3" />
    <text x="7" y="827" font-size="24" text-anchor="middle" fill="black">(3,1)</text>
    <path d="M -3,837 L -3,844.5 Q -3,847 -0.5,855.25 L 4.5,871.75 L 7,880" fill="none" stroke="#1b3966" stroke-width="3" stroke-dasharray="10,5" marker-end="url(#arrow)" />
    <path d="M 17,837 L 31.25,854.25 Q 36,860 36,880 L 36,920 Q 36,940 33.75,945.75 L 29.25,957.25 L 27,963" fill="none" stroke="#1b3966" stroke-width="3" marker-end="url(#arrow)" />
    <circle cx="64" cy="820" r="20" fill="#deebf7" stroke="#1b3966" stroke-width="3" />
    <text x="64" y="827" font-size="24" text-anchor="middle" fill="black">(3,1)</text>
    <path d="M 54,837 L 54,844.5 Q 54,847 56.5,855.25 L 61.5,871.75 L 64,880" fill="none" stroke="#1b3966" stroke-width="3" stroke-dasharray="10,5" marker-end="url(#arrow)" />
    <path d="M 74,837 L 74,844.5 Q 74,847 82.75,850.25 L 100.25,856.75 Q 109,860 109,890 L 109,1390 Q 109,1420 92,1425 L 58,1435 L 41,1440" fill="none" stroke="#1b3966" stroke-width="3" marker-end="url(#arrow)" />
    <circle cx="7" cy="500" r="20" fill="#deebf7" stroke="#1b3966" stroke-width="3" />
    <text x="7" y="507" font-size="24" text-anchor="middle" fill="black">(4,3)</text>
    <path d="M -3,517 L -3,524.5 Q -3,527 -1.90184,556.98 L 5.90184,770.02 L 7,800" fill="none" stroke="#1b3966" stroke-width="3" stroke-dasharray="10,5" marker-end="url(#arrow)" />
    <path d="M 17,517 L 67,801" fill="none" stroke="#1b3966" stroke-width="3" marker-end="url(#arrow)" />
    <circle cx="64" cy="500" r="20" fill="#deebf7" stroke="#1b3966" stroke-width="3" />
    <text x="64" y="507" font-size="24" text-anchor="middle" fill="black">(4,3)</text>
    <path d="M 54,517 L 54,524.5 Q 54,527 56.1682,556.922 L 71.8318,773.078 L 74,803" fill="none" stroke="#1b3966" stroke-width="3" stroke-dasharray="10,5" marker-end="url(#arrow)" />
    <path d="M 74,517 L 74,524.5 Q 74,527 83.75,530.25 L 103.25,536.75 Q 113,540 113,570 L 113,1390 Q 113,1420 95,1425 L 59,1435 L 41,1440" fill="none" stroke="#1b3966" stroke-width="3" marker-end="url(#arrow)" />
    <circle cx="7" cy="420" r="20" fill="#deebf7" stroke="#1b3966" stroke-width="3" />
    <text x="7" y="427" font-size="24" text-anchor="middle" fill="black">(4,2)</text>
    <path d="M -3,437 L -3,444.5 Q -3,447 -0.5,455.25 L 4.5,471.75 L 7,480" fill="none" stroke="#1b3966" stroke-width="3" stroke-dasharray="10,5" marker-end="url(#arrow)" />
    <path d="M 17,437 L 31.25,454.25 Q 36,460 36,480 L 36,520 Q 36,540 38.8605,569.863 L 58.1395,771.137 L 61,801" fill="none" stroke="#1b3966" stroke-width="3" marker-end="url(#arrow)" />
    <circle cx="64" cy="420" r="20" fill="#deebf7" stroke="#1b3966" stroke-width="3" />
    <text x="64" y="427" font-size="24" text-anchor="middle" fill="black">(4,2)</text>
    <path d="M 54,437 L 54,444.5 Q 54,447 56.5,455.25 L 61.5,471.75 L 64,480" fill="none" stroke="#1b3966" stroke-width="3" stroke-dasharray="10,5" marker-end="url(#arrow)" />
    <path d="M 74,437 L 74,444.5 Q 74,447 84.75,450.25 L 106.25,456.75 Q 117,460 117,490 L 117,1390 Q 117,1420 98,1425 L 60,1435 L 41,1440" fill="none" stroke="#1b3966" stroke-width="3" marker-end="url(#arrow)" />
    <circle cx="7" cy="340" r="20" fill="#deebf7" stroke="#1b3966" stroke-width="3" />
    <text x="7" y="347" font-size="24" text-anchor="middle" fill="black">(4,1)</text>
    <path d="M -3,357 L -3,364.5 Q -3,367 -0.5,375.25 L 4.5,391.75 L 7,400" fill="none" stroke="#1b3966" stroke-width="3" stroke-dasharray="10,5" marker-end="url(#arrow)" />
    <path d="M 17,357 L 31.25,374.25 Q 36,380 36,400 L 36,440 Q 36,460 37,460 L 39,460 Q 40,460 40,480 L 40,520 Q 40,540 41.7083,569.951 L 53.2917,773.049 L 55,803" fill="none" stroke="#1b3966" stroke-width="3" marker-end="url(#arrow)" />
    <circle cx="64" cy="340" r="20" fill="#deebf7" stroke="#1b3966" stroke-width="3" />
    <text x="64" y="347" font-size="24" text-anchor="middle" fill="black">(4,1)</text>
    <path d="M 54,357 L 54,364.5 Q 54,367 56.5,375.25 L 61.5,391.75 L 64,400" fill="none" stroke="#1b3966" stroke-width="3" stroke-dasharray="10,5" marker-end="url(#arrow)" />
    <path d="M 74,357 L 74,364.5 Q 74,367 85.75,370.25 L 109.25,376.75 Q 121,380 121,410 L 121,1390 Q 121,1420 101,1425 L 61,1435 L 41,1440" fill="none" stroke="#1b3966" stroke-width="3" marker-end="url(#arrow)" />
    <circle cx="36" cy="260" r="20" fill="#deebf7" stroke="#1b3966" stroke-width="3" />
    <text x="36" y="267" font-size="24" text-anchor="middle" fill="black">(5,4)</text>
    <path d="M 26,277 L 7,320" fill="none" stroke="#1b3966" stroke-width="3" stroke-dasharray="10,5" marker-end="url(#arrow)" />
    <path d="M 46,277 L 74,323" fill="none" stroke="#1b3966" stroke-width="3" marker-end="url(#arrow)" />
    <circle cx="36" cy="180" r="20" fill="#deebf7" stroke="#1b3966" stroke-width="3" />
    <text x="36" y="187" font-size="24" text-anchor="middle" fill="black">(5,3)</text>
    <path d="M 26,197 L 26,204.5 Q 26,207 28.5,215.25 L 33.5,231.75 L 36,240" fill="none" stroke="#1b3966" stroke-width="3" stroke-dasharray="10,5" marker-end="url(#arrow)" />
    <path d="M 46,197 L 67,321" fill="none" stroke="#1b3966" stroke-width="3" marker-end="url(#arrow)" />
    <circle cx="36" cy="100" r="20" fill="#deebf7" stroke="#1b3966" stroke-width="3" />
    <text x="36" y="107" font-size="24" text-anchor="middle" fill="black">(5,2)</text>
    <path d="M 26,117 L 26,124.5 Q 26,127 28.5,135.25 L 33.5,151.75 L 36,160" fill="none" stroke="#1b3966" stroke-width="3" stroke-dasharray="10,5" marker-end="url(#arrow)" />
    <path d="M 46,117 L 68.5,134.25 Q 76,140 76,160 L 76,200 Q 76,220 77,220 L 79,220 Q 80,220 80,240 L 80,280 Q 80,300 75.25,305.25 L 65.75,315.75 L 61,321" fill="none" stroke="#1b3966" stroke-width="3" marker-end="url(#arrow)" />
    <circle cx="36" cy="20" r="20" fill="#deebf7" stroke="#1b3966" stroke-width="3" />
    <text x="36" y="27" font-size="24" text-anchor="middle" fill="black">(5,1)</text>
    <path d="M 26,37 L 26,44.5 Q 26,47 28.5,55.25 L 33.5,71.75 L 36,80" fill="none" stroke="#1b3966" stroke-width="3" stroke-dasharray="10,5" marker-end="url(#arrow)" />
    <path d="M 46,37 L 68.5,54.25 Q 76,60 76,80 L 76,120 Q 76,140 77,140 L 79,140 Q 80,140 80,160 L 80,200 Q 80,220 79,220 L 77,220 Q 76,220 76,240 L 76,280 Q 76,300 70.75,305.75 L 60.25,317.25 L 55,323" fill="none" stroke="#1b3966" stroke-width="3" marker-end="url(#arrow)" />
    <rect x="26" y="1440" width="30" height="40" fill="#deebf7" stroke="#1b3966" stroke-width="3" />
    <text x="41" y="1467" font-size="24" text-anchor="middle" fill="black">1</text>
</svg>