<svg xmlns="http://www.w3.org/2000/svg" width="140" height="323" viewBox="0 0 140 323">
<defs>
    <marker id="arrow" viewBox="-10 -4 20 8" markerWidth="10" markerHeight="10" orient="auto">
        <polygon points="-10,-4 0,0 -10,4" fill="#1b3966" stroke="none" />
    </marker>
</defs>
    <circle cx="7" cy="180" r="20" fill="#deebf7" stroke="#1b3966" stroke-width="3" />
    <text x="7" y="187" font-size="24" text-anchor="middle" fill="black">1</text>
    <path d="M -3,197 L -3,204.5 Q -3,207 0.75,215.25 L 8.25,231.75 L 12,240" fill="none" stroke="#1b3966" stroke-width="3" stroke-dasharray="10,5" marker-end="url(#arrow)" />
    <path d="M 17,197 L 69,240" fill="none" stroke="#1b3966" stroke-width="3" marker-end="url(#arrow)" />
    <circle cx="64" cy="180" r="20" fill="#deebf7" stroke="#1b3966" stroke-width="3" />
    <text x="64" y="187" font-size="24" text-anchor="middle" fill="black">1</text>
    <path d="M 54,197 L 54,204.5 Q 54,207 57.75,215.25 L 65.25,231.75 L 69,240" fill="none" stroke="#1b3966" stroke-width="3" stroke-dasharray="10,5" marker-end="url(#arrow)" />
    <path d="M 74,197 L 74,204.5 Q 74,207 58.5,215.25 L 27.5,231.75 L 12,240" fill="none" stroke="#1b3966" stroke-width="3" marker-end="url(#arrow)" />
    <circle cx="7" cy="100" r="20" fill="#deebf7" stroke="#1b3966" stroke-width="3" />
    <text x="7" y="107" font-size="24" text-anchor="middle" fill="black">2</text>
    <path d="M -3,117 L -3,124.5 Q -3,127 -2.75,136 L -2.25,154 L -2,163" fill="none" stroke="#1b3966" stroke-width="3" stroke-dasharray="10,5" marker-end="url(#arrow)" />
    <path d="M 17,117 L 55,163" fill="none" stroke="#1b3966" stroke-width="3" marker-end="url(#arrow)" />
    <circle cx="64" cy="100" r="20" fill="#deebf7" stroke="#1b3966" stroke-width="3" />
    <text x="64" y="107" font-size="24" text-anchor="middle" fill="black">2</text>
    <path d="M 54,117 L 54,124.5 Q 54,127 59,136 L 69,154 L 74,163" fill="none" stroke="#1b3966" stroke-width="3" stroke-dasharray="10,5" marker-end="url(#arrow)" />
    <path d="M 74,117 L 74,124.5 Q 74,127 59.75,136 L 31.25,154 L 17,163" fill="none" stroke="#1b3966" stroke-width="3" marker-end="url(#arrow)" />
    <circle cx="36" cy="20" r="20" fill="#deebf7" stroke="#1b3966" stroke-width="3" />
    <text x="36" y="27" font-size="24" text-anchor="middle" fill="black">3</text>
    <path d="M 26,37 L 7,80" fill="none" stroke="#1b3966" stroke-width="3" stroke-dasharray="10,5" marker-end="url(#arrow)" />
    <path d="M 46,37 L 64,80" fill="none" stroke="#1b3966" stroke-width="3" marker-end="url(#arrow)" />
    <rect x="-3" y="240" width="30" height="40" fill="#deebf7" stroke="#1b3966" stroke-width="3" />
    <text x="12" y="267" font-size="24" text-anchor="middle" fill="black">0</text>
    <rect x="54" y="240" width="30" height="40" fill="#deebf7" stroke="#1b3966" stroke-width="3" />
    <text x="69" y="267" font-size="24" text-anchor="middle" fill="black">1</text>
</svg>