<svg xmlns="http://www.w3.org/2000/svg" width="1064" height="883" viewBox="-38 -21.5 1064 883">
<defs>
    <marker id="arrow" viewBox="-10 -4 20 8" markerWidth="10" markerHeight="10" orient="auto">
        <polygon points="-10,-4 0,0 -10,4" fill="#1b3966" stroke="none" />
    </marker>
</defs>
    <circle cx="315" cy="740" r="20" fill="#deebf7" stroke="#1b3966" stroke-width="3" />
    <text x="315" y="747" font-size="24" text-anchor="middle" fill="black">(2,1)</text>
    <path d="M 305,757 L 305,764.5 Q 305,767 334.888,769.595 L 655.112,797.405 L 685,800" fill="none" stroke="#1b3966" stroke-width="3" stroke-dasharray="10,5" marker-end="url(#arrow)" />
    <path d="M 325,757 L 685,800" fill="none" stroke="#1b3966" stroke-width="3" marker-end="url(#arrow)" />
    <circle cx="680" cy="740" r="20" fill="#deebf7" stroke="#1b3966" stroke-width="3" />
    <text x="680" y="747" font-size="24" text-anchor="middle" fill="black">(2,1)</text>
    <path d="M 670,757 L 320,800" fill="none" stroke="#1b3966" stroke-width="3" stroke-dasharray="10,5" marker-end="url(#arrow)" />
    <path d="M 690,757 L 690,764.5 Q 690,767 688.75,775.25 L 686.25,791.75 L 685,800" fill="none" stroke="#1b3966" stroke-width="3" marker-end="url(#arrow)" />
    <circle cx="59" cy="660" r="20" fill="#deebf7" stroke="#1b3966" stroke-width="3" />
    <text x="59" y="667" font-size="24" text-anchor="middle" fill="black">(3,2)</text>
    <path d="M 49,677 L 49,684.5 Q 49,687 78.7298,691.018 L 278.27,717.982 L 308,722" fill="none" stroke="#1b3966" stroke-width="3" stroke-dasharray="10,5" marker-end="url(#arrow)" />
    <path d="M 69,677 L 695.018,698.949 Q 725,700 725,720 L 725,760 Q 725,780 715,785 L 695,795 L 685,800" fill="none" stroke="#1b3966" stroke-width="3" marker-end="url(#arrow)" />
    <circle cx="168" cy="660" r="20" fill="#deebf7" stroke="#1b3966" stroke-width="3" />
    <text x="168" y="667" font-size="24" text-anchor="middle" fill="black">(3,2)</text>
    <path d="M 158,677 L 158,684.5 Q 158,687 187.931,689.038 L 642.069,719.962 L 672,722" fill="none" stroke="#1b3966" stroke-width="3" stroke-dasharray="10,5" marker-end="url(#arrow)" />
    <path d="M 178,677 L 311,721" fill="none" stroke="#1b3966" stroke-width="3" marker-end="url(#arrow)" />
    <circle cx="277" cy="660" r="20" fill="#deebf7" stroke="#1b3966" stroke-width="3" />
    <text x="277" y="667" font-size="24" text-anchor="middle" fill="black">(3,2)</text>
    <path d="M 267,677 L 267,684.5 Q 267,687 279.739,714.161 L 307.261,772.839 L 320,800" fill="none" stroke="#1b3966" stroke-width="3" stroke-dasharray="10,5" marker-end="url(#arrow)" />
    <path d="M 287,677 L 685,800" fill="none" stroke="#1b3966" stroke-width="3" marker-end="url(#arrow)" />
    <circle cx="386" cy="660" r="20" fill="#deebf7" stroke="#1b3966" stroke-width="3" />
    <text x="386" y="667" font-size="24" text-anchor="middle" fill="black">(3,2)</text>
    <path d="M 376,677 L 376,684.5 Q 376,687 404.175,697.304 L 656.825,789.696 L 685,800" fill="none" stroke="#1b3966" stroke-width="3" stroke-dasharray="10,5" marker-end="url(#arrow)" />
    <path d="M 396,677 L 676,721" fill="none" stroke="#1b3966" stroke-width="3" marker-end="url(#arrow)" />
    <circle cx="495" cy="660" r="20" fill="#deebf7" stroke="#1b3966" stroke-width="3" />
    <text x="495" y="667" font-size="24" text-anchor="middle" fill="black">(3,2)</text>
    <path d="M 485,677 L 315,720" fill="none" stroke="#1b3966" stroke-width="3" stroke-dasharray="10,5" marker-end="url(#arrow)" />
    <path d="M 505,677 L 505,684.5 Q 505,687 475.474,692.312 L 345.526,715.688 L 316,721" fill="none" stroke="#1b3966" stroke-width="3" marker-end="url(#arrow)" />
    <circle cx="604" cy="660" r="20" fill="#deebf7" stroke="#1b3966" stroke-width="3" />
    <text x="604" y="667" font-size="24" text-anchor="middle" fill="black">(3,2)</text>
    <path d="M 594,677 L 320,800" fill="none" stroke="#1b3966" stroke-width="3" stroke-dasharray="10,5" marker-end="url(#arrow)" />
    <path d="M 614,677 L 682,721" fill="none" stroke="#1b3966" stroke-width="3" marker-end="url(#arrow)" />
    <circle cx="713" cy="660" r="20" fill="#deebf7" stroke="#1b3966" stroke-width="3" />
    <text x="713" y="667" font-size="24" text-anchor="middle" fill="black">(3,2)</text>
    <path d="M 703,677 L 722.5,694.25 Q 729,700 729,720 L 729,760 Q 729,780 718,785 L 696,795 L 685,800" fill="none" stroke="#1b3966" stroke-width="3" stroke-dasharray="10,5" marker-end="url(#arrow)" />
    <path d="M 723,677 L 723,684.5 Q 723,687 713.5,715.25 L 694.5,771.75 L 685,800" fill="none" stroke="#1b3966" stroke-width="3" marker-end="url(#arrow)" />
    <circle cx="822" cy="660" r="20" fill="#deebf7" stroke="#1b3966" stroke-width="3" />
    <text x="822" y="667" font-size="24" text-anchor="middle" fill="black">(3,2)</text>
    <path d="M 812,677 L 688,722" fill="none" stroke="#1b3966" stroke-width="3" stroke-dasharray="10,5" marker-end="url(#arrow)" />
    <path d="M 832,677 L 832,684.5 Q 832,687 808.215,705.284 L 708.785,781.716 L 685,800" fill="none" stroke="#1b3966" stroke-width="3" marker-end="url(#arrow)" />
    <circle cx="931" cy="660" r="20" fill="#deebf7" stroke="#1b3966" stroke-width="3" />
    <text x="931" y="667" font-size="24" text-anchor="middle" fill="black">(3,2)</text>
    <path d="M 921,677 L 299.981,698.941 Q 270,700 270,720 L 270,760 Q 270,780 282.5,785 L 307.5,795 L 320,800" fill="none" stroke="#1b3966" stroke-width="3" stroke-dasharray="10,5" marker-end="url(#arrow)" />
    <path d="M 941,677 L 941,684.5 Q 941,687 911.051,688.75 L 354.949,721.25 L 325,723" fill="none" stroke="#1b3966" stroke-width="3" marker-end="url(#arrow)" />
    <circle cx="18" cy="580" r="20" fill="#deebf7" stroke="#1b3966" stroke-width="3" />
    <text x="18" y="587" font-size="24" text-anchor="middle" fill="black">(3,1)</text>
    <path d="M 8,597 L 8,604.5 Q 8,607 10.75,610.25 L 16.25,616.75 Q 19,620 19,640 L 19,680 Q 19,700 48.9041,702.396 L 276.096,720.604 L 306,723" fill="none" stroke="#1b3966" stroke-width="3" stroke-dasharray="10,5" marker-end="url(#arrow)" />
    <path d="M 28,597 L 24.25,614.25 Q 23,620 23,640 L 23,680 Q 23,700 52.9104,702.317 L 277.09,719.683 L 307,722" fill="none" stroke="#1b3966" stroke-width="3" marker-end="url(#arrow)" />
    <circle cx="86" cy="580" r="20" fill="#deebf7" stroke="#1b3966" stroke-width="3" />
    <text x="86" y="587" font-size="24" text-anchor="middle" fill="black">(3,1)</text>
    <path d="M 76,597 L 59,640" fill="none" stroke="#1b3966" stroke-width="3" stroke-dasharray="10,5" marker-end="url(#arrow)" />
    <path d="M 96,597 L 946.01,619.216 Q 976,620 976,650 L 976,750 Q 976,780 946.071,782.057 L 714.929,797.943 L 685,800" fill="none" stroke="#1b3966" stroke-width="3" marker-end="url(#arrow)" />
    <circle cx="154" cy="580" r="20" fill="#deebf7" stroke="#1b3966" stroke-width="3" />
    <text x="154" y="587" font-size="24" text-anchor="middle" fill="black">(3,1)</text>
    <path d="M 144,597 L 144,604.5 Q 144,607 168.73,623.983 L 285.27,704.017 L 310,721" fill="none" stroke="#1b3966" stroke-width="3" stroke-dasharray="10,5" marker-end="url(#arrow)" />
    <path d="M 164,597 L 208.25,614.25 Q 223,620 223,640 L 223,680 Q 223,700 252.961,701.538 L 641.039,721.462 L 671,723" fill="none" stroke="#1b3966" stroke-width="3" marker-end="url(#arrow)" />
    <circle cx="222" cy="580" r="20" fill="#deebf7" stroke="#1b3966" stroke-width="3" />
    <text x="222" y="587" font-size="24" text-anchor="middle" fill="black">(3,1)</text>
    <path d="M 212,597 L 212,604.5 Q 212,607 241.996,607.508 L 950.004,619.492 Q 980,620 980,650 L 980,750 Q 980,780 950.069,782.029 L 714.931,797.971 L 685,800" fill="none" stroke="#1b3966" stroke-width="3" stroke-dasharray="10,5" marker-end="url(#arrow)" />
    <path d="M 232,597 L 228.25,614.25 Q 227,620 227,640 L 227,680 Q 227,700 256.967,701.408 L 644.033,719.592 L 674,721" fill="none" stroke="#1b3966" stroke-width="3" marker-end="url(#arrow)" />
    <circle cx="290" cy="580" r="20" fill="#deebf7" stroke="#1b3966" stroke-width="3" />
    <text x="290" y="587" font-size="24" text-anchor="middle" fill="black">(3,1)</text>
    <path d="M 280,597 L 168,640" fill="none" stroke="#1b3966" stroke-width="3" stroke-dasharray="10,5" marker-end="url(#arrow)" />
    <path d="M 300,597 L 313,721" fill="none" stroke="#1b3966" stroke-width="3" marker-end="url(#arrow)" />
    <circle cx="358" cy="580" r="20" fill="#deebf7" stroke="#1b3966" stroke-width="3" />
    <text x="358" y="587" font-size="24" text-anchor="middle" fill="black">(3,1)</text>
    <path d="M 348,597 L 348,604.5 Q 348,607 357.5,615.25 L 376.5,631.75 L 386,640" fill="none" stroke="#1b3966" stroke-width="3" stroke-dasharray="10,5" marker-end="url(#arrow)" />
    <path d="M 368,597 L 368,604.5 Q 368,607 355.157,634.112 L 326.843,693.888 L 314,721" fill="none" stroke="#1b3966" stroke-width="3" marker-end="url(#arrow)" />
    <circle cx="426" cy="580" r="20" fill="#deebf7" stroke="#1b3966" stroke-width="3" />
    <text x="426" y="587" font-size="24" text-anchor="middle" fill="black">(3,1)</text>
    <path d="M 416,597 L 43.951,618.286 Q 14,620 14,650 L 14,750 Q 14,780 43.9361,781.957 L 290.064,798.043 L 320,800" fill="none" stroke="#1b3966" stroke-width="3" stroke-dasharray="10,5" marker-end="url(#arrow)" />
    <path d="M 436,597 L 678,721" fill="none" stroke="#1b3966" stroke-width="3" marker-end="url(#arrow)" />
    <circle cx="494" cy="580" r="20" fill="#deebf7" stroke="#1b3966" stroke-width="3" />
    <text x="494" y="587" font-size="24" text-anchor="middle" fill="black">(3,1)</text>
    <path d="M 484,597 L 484,604.5 Q 484,607 484.5,616 L 485.5,634 L 486,643" fill="none" stroke="#1b3966" stroke-width="3" stroke-dasharray="10,5" marker-end="url(#arrow)" />
    <path d="M 504,597 L 685,800" fill="none" stroke="#1b3966" stroke-width="3" marker-end="url(#arrow)" />
    <circle cx="562" cy="580" r="20" fill="#deebf7" stroke="#1b3966" stroke-width="3" />
    <text x="562" y="587" font-size="24" text-anchor="middle" fill="black">(3,1)</text>
    <path d="M 552,597 L 552,604.5 Q 552,607 577.75,610.25 L 629.25,616.75 Q 655,620 655,640 L 655,680 Q 655,700 661.25,705 L 673.75,715 L 680,720" fill="none" stroke="#1b3966" stroke-width="3" stroke-dasharray="10,5" marker-end="url(#arrow)" />
    <path d="M 572,597 L 954.047,618.328 Q 984,620 984,650 L 984,750 Q 984,780 954.067,782.002 L 714.933,797.998 L 685,800" fill="none" stroke="#1b3966" stroke-width="3" marker-end="url(#arrow)" />
    <circle cx="630" cy="580" r="20" fill="#deebf7" stroke="#1b3966" stroke-width="3" />
    <text x="630" y="587" font-size="24" text-anchor="middle" fill="black">(3,1)</text>
    <path d="M 620,597 L 604,640" fill="none" stroke="#1b3966" stroke-width="3" stroke-dasharray="10,5" marker-end="url(#arrow)" />
    <path d="M 640,597 L 640,604.5 Q 640,607 617.5,610.25 L 572.5,616.75 Q 550,620 550,640 L 550,680 Q 550,700 520.121,702.693 L 346.879,718.307 L 317,721" fill="none" stroke="#1b3966" stroke-width="3" marker-end="url(#arrow)" />
    <circle cx="698" cy="580" r="20" fill="#deebf7" stroke="#1b3966" stroke-width="3" />
    <text x="698" y="587" font-size="24" text-anchor="middle" fill="black">(3,1)</text>
    <path d="M 688,597 L 688,604.5 Q 688,607 694.25,615.25 L 706.75,631.75 L 713,640" fill="none" stroke="#1b3966" stroke-width="3" stroke-dasharray="10,5" marker-end="url(#arrow)" />
    <path d="M 708,597 L 708,604.5 Q 708,607 695.75,610.25 L 671.25,616.75 Q 659,620 659,640 L 659,680 Q 659,700 665.75,705.25 L 679.25,715.75 L 686,721" fill="none" stroke="#1b3966" stroke-width="3" marker-end="url(#arrow)" />
    <circle cx="766" cy="580" r="20" fill="#deebf7" stroke="#1b3966" stroke-width="3" />
    <text x="766" y="587" font-size="24" text-anchor="middle" fill="black">(3,1)</text>
    <path d="M 756,597 L 756,604.5 Q 756,607 770.25,616 L 798.75,634 L 813,643" fill="none" stroke="#1b3966" stroke-width="3" stroke-dasharray="10,5" marker-end="url(#arrow)" />
    <path d="M 776,597 L 776,604.5 Q 776,607 748.75,610.25 L 694.25,616.75 Q 667,620 667,640 L 667,680 Q 667,700 637.055,701.812 L 349.945,719.188 L 320,721" fill="none" stroke="#1b3966" stroke-width="3" marker-end="url(#arrow)" />
    <circle cx="834" cy="580" r="20" fill="#deebf7" stroke="#1b3966" stroke-width="3" />
    <text x="834" y="587" font-size="24" text-anchor="middle" fill="black">(3,1)</text>
    <path d="M 824,597 L 824,604.5 Q 824,607 850.75,615.25 L 904.25,631.75 L 931,640" fill="none" stroke="#1b3966" stroke-width="3" stroke-dasharray="10,5" marker-end="url(#arrow)" />
    <path d="M 844,597 L 844,604.5 Q 844,607 825,610.25 L 787,616.75 Q 768,620 768,640 L 768,680 Q 768,700 738.036,701.478 L 351.964,720.522 L 322,722" fill="none" stroke="#1b3966" stroke-width="3" marker-end="url(#arrow)" />
    <circle cx="902" cy="580" r="20" fill="#deebf7" stroke="#1b3966" stroke-width="3" />
    <text x="902" y="587" font-size="24" text-anchor="middle" fill="black">(3,1)</text>
    <path d="M 892,597 L 505,643" fill="none" stroke="#1b3966" stroke-width="3" stroke-dasharray="10,5" marker-end="url(#arrow)" />
    <path d="M 912,597 L 912,604.5 Q 912,607 903.25,610.25 L 885.75,616.75 Q 877,620 877,640 L 877,680 Q 877,700 847.024,701.19 L 352.976,720.81 L 323,722" fill="none" stroke="#1b3966" stroke-width="3" marker-end="url(#arrow)" />
    <circle cx="970" cy="580" r="20" fill="#deebf7" stroke="#1b3966" stroke-width="3" />
    <text x="970" y="587" font-size="24" text-anchor="middle" fill="black">(3,1)</text>
    <path d="M 960,597 L 832,643" fill="none" stroke="#1b3966" stroke-width="3" stroke-dasharray="10,5" marker-end="url(#arrow)" />
    <path d="M 980,597 L 980,604.5 Q 980,607 955.25,610.25 L 905.75,616.75 Q 881,620 881,640 L 881,680 Q 881,700 851.213,703.568 L 718.787,719.432 L 689,723" fill="none" stroke="#1b3966" stroke-width="3" marker-end="url(#arrow)" />
    <circle cx="132" cy="500" r="20" fill="#deebf7" stroke="#1b3966" stroke-width="3" />
    <text x="132" y="507" font-size="24" text-anchor="middle" fill="black">(4,3)</text>
    <path d="M 122,517 L 18,560" fill="none" stroke="#1b3966" stroke-width="3" stroke-dasharray="10,5" marker-end="url(#arrow)" />
    <path d="M 142,517 L 142,524.5 Q 142,527 128,535.25 L 100,551.75 L 86,560" fill="none" stroke="#1b3966" stroke-width="3" marker-end="url(#arrow)" />
    <circle cx="314" cy="500" r="20" fill="#deebf7" stroke="#1b3966" stroke-width="3" />
    <text x="314" y="507" font-size="24" text-anchor="middle" fill="black">(4,3)</text>
    <path d="M 304,517 L 222,560" fill="none" stroke="#1b3966" stroke-width="3" stroke-dasharray="10,5" marker-end="url(#arrow)" />
    <path d="M 324,517 L 324,524.5 Q 324,527 313.25,536 L 291.75,554 L 281,563" fill="none" stroke="#1b3966" stroke-width="3" marker-end="url(#arrow)" />
    <circle cx="496" cy="500" r="20" fill="#deebf7" stroke="#1b3966" stroke-width="3" />
    <text x="496" y="507" font-size="24" text-anchor="middle" fill="black">(4,3)</text>
    <path d="M 486,517 L 426,560" fill="none" stroke="#1b3966" stroke-width="3" stroke-dasharray="10,5" marker-end="url(#arrow)" />
    <path d="M 506,517 L 506,524.5 Q 506,527 476.448,532.164 L 329.552,557.836 L 300,563" fill="none" stroke="#1b3966" stroke-width="3" marker-end="url(#arrow)" />
    <circle cx="678" cy="500" r="20" fill="#deebf7" stroke="#1b3966" stroke-width="3" />
    <text x="678" y="507" font-size="24" text-anchor="middle" fill="black">(4,3)</text>
    <path d="M 668,517 L 630,560" fill="none" stroke="#1b3966" stroke-width="3" stroke-dasharray="10,5" marker-end="url(#arrow)" />
    <path d="M 688,517 L 698,560" fill="none" stroke="#1b3966" stroke-width="3" marker-end="url(#arrow)" />
    <circle cx="860" cy="500" r="20" fill="#deebf7" stroke="#1b3966" stroke-width="3" />
    <text x="860" y="507" font-size="24" text-anchor="middle" fill="black">(4,3)</text>
    <path d="M 850,517 L 766,560" fill="none" stroke="#1b3966" stroke-width="3" stroke-dasharray="10,5" marker-end="url(#arrow)" />
    <path d="M 870,517 L 870,524.5 Q 870,527 861,535.25 L 843,551.75 L 834,560" fill="none" stroke="#1b3966" stroke-width="3" marker-end="url(#arrow)" />
    <circle cx="132" cy="420" r="20" fill="#deebf7" stroke="#1b3966" stroke-width="3" />
    <text x="132" y="427" font-size="24" text-anchor="middle" fill="black">(4,2)</text>
    <path d="M 122,437 L 122,444.5 Q 122,447 124.5,455.25 L 129.5,471.75 L 132,480" fill="none" stroke="#1b3966" stroke-width="3" stroke-dasharray="10,5" marker-end="url(#arrow)" />
    <path d="M 142,437 L 164,563" fill="none" stroke="#1b3966" stroke-width="3" marker-end="url(#arrow)" />
    <circle cx="314" cy="420" r="20" fill="#deebf7" stroke="#1b3966" stroke-width="3" />
    <text x="314" y="427" font-size="24" text-anchor="middle" fill="black">(4,2)</text>
    <path d="M 304,437 L 304,444.5 Q 304,447 306.5,455.25 L 311.5,471.75 L 314,480" fill="none" stroke="#1b3966" stroke-width="3" stroke-dasharray="10,5" marker-end="url(#arrow)" />
    <path d="M 324,437 L 324,444.5 Q 324,447 299.75,450.25 L 251.25,456.75 Q 227,460 227,460 L 227,460 Q 227,460 234.25,480 L 248.75,520 Q 256,540 256,560 L 256,600 Q 256,620 261.25,625 L 271.75,635 L 277,640" fill="none" stroke="#1b3966" stroke-width="3" marker-end="url(#arrow)" />
    <circle cx="496" cy="420" r="20" fill="#deebf7" stroke="#1b3966" stroke-width="3" />
    <text x="496" y="427" font-size="24" text-anchor="middle" fill="black">(4,2)</text>
    <path d="M 486,437 L 486,444.5 Q 486,447 488.5,455.25 L 493.5,471.75 L 496,480" fill="none" stroke="#1b3966" stroke-width="3" stroke-dasharray="10,5" marker-end="url(#arrow)" />
    <path d="M 506,437 L 506,444.5 Q 506,447 480.75,450.25 L 430.25,456.75 Q 405,460 405,460 L 405,460 Q 405,460 424.945,482.41 L 474.055,537.59 L 494,560" fill="none" stroke="#1b3966" stroke-width="3" marker-end="url(#arrow)" />
    <circle cx="678" cy="420" r="20" fill="#deebf7" stroke="#1b3966" stroke-width="3" />
    <text x="678" y="427" font-size="24" text-anchor="middle" fill="black">(4,2)</text>
    <path d="M 668,437 L 668,444.5 Q 668,447 670.5,455.25 L 675.5,471.75 L 678,480" fill="none" stroke="#1b3966" stroke-width="3" stroke-dasharray="10,5" marker-end="url(#arrow)" />
    <path d="M 688,437 L 688,444.5 Q 688,447 708.25,450.25 L 748.75,456.75 Q 769,460 769,460 L 769,460 Q 769,460 759.75,480 L 741.25,520 Q 732,540 732,560 L 732,600 Q 732,620 714.75,620 L 680.25,620 Q 663,620 663,640 L 663,680 Q 663,700 668.25,705.25 L 678.75,715.75 L 684,721" fill="none" stroke="#1b3966" stroke-width="3" marker-end="url(#arrow)" />
    <circle cx="860" cy="420" r="20" fill="#deebf7" stroke="#1b3966" stroke-width="3" />
    <text x="860" y="427" font-size="24" text-anchor="middle" fill="black">(4,2)</text>
    <path d="M 850,437 L 850,444.5 Q 850,447 852.5,455.25 L 857.5,471.75 L 860,480" fill="none" stroke="#1b3966" stroke-width="3" stroke-dasharray="10,5" marker-end="url(#arrow)" />
    <path d="M 870,437 L 902,560" fill="none" stroke="#1b3966" stroke-width="3" marker-end="url(#arrow)" />
    <circle cx="132" cy="340" r="20" fill="#deebf7" stroke="#1b3966" stroke-width="3" />
    <text x="132" y="347" font-size="24" text-anchor="middle" fill="black">(4,1)</text>
    <path d="M 122,357 L 122,364.5 Q 122,367 124.5,375.25 L 129.5,391.75 L 132,400" fill="none" stroke="#1b3966" stroke-width="3" stroke-dasharray="10,5" marker-end="url(#arrow)" />
    <path d="M 142,357 L 202.75,374.25 Q 223,380 223,400 L 223,440 Q 223,460 223,460 L 223,460 Q 223,460 223,460 L 223,460 Q 223,460 204.889,483.916 L 163.111,539.084 L 145,563" fill="none" stroke="#1b3966" stroke-width="3" marker-end="url(#arrow)" />
    <circle cx="314" cy="340" r="20" fill="#deebf7" stroke="#1b3966" stroke-width="3" />
    <text x="314" y="347" font-size="24" text-anchor="middle" fill="black">(4,1)</text>
    <path d="M 304,357 L 304,364.5 Q 304,367 306.5,375.25 L 311.5,391.75 L 314,400" fill="none" stroke="#1b3966" stroke-width="3" stroke-dasharray="10,5" marker-end="url(#arrow)" />
    <path d="M 324,357 L 358,560" fill="none" stroke="#1b3966" stroke-width="3" marker-end="url(#arrow)" />
    <circle cx="496" cy="340" r="20" fill="#deebf7" stroke="#1b3966" stroke-width="3" />
    <text x="496" y="347" font-size="24" text-anchor="middle" fill="black">(4,1)</text>
    <path d="M 486,357 L 486,364.5 Q 486,367 488.5,375.25 L 493.5,391.75 L 496,400" fill="none" stroke="#1b3966" stroke-width="3" stroke-dasharray="10,5" marker-end="url(#arrow)" />
    <path d="M 506,357 L 562,560" fill="none" stroke="#1b3966" stroke-width="3" marker-end="url(#arrow)" />
    <circle cx="678" cy="340" r="20" fill="#deebf7" stroke="#1b3966" stroke-width="3" />
    <text x="678" y="347" font-size="24" text-anchor="middle" fill="black">(4,1)</text>
    <path d="M 668,357 L 668,364.5 Q 668,367 670.5,375.25 L 675.5,391.75 L 678,400" fill="none" stroke="#1b3966" stroke-width="3" stroke-dasharray="10,5" marker-end="url(#arrow)" />
    <path d="M 688,357 L 688,364.5 Q 688,367 662.75,370.25 L 612.25,376.75 Q 587,380 587,400 L 587,440 Q 587,460 587,460 L 587,460 Q 587,460 587,460 L 587,460 Q 587,460 572.25,480 L 542.75,520 Q 528,540 528,560 L 528,600 Q 528,620 506.25,620 L 462.75,620 Q 441,620 441,640 L 441,680 Q 441,700 411.435,705.089 L 348.565,715.911 L 319,721" fill="none" stroke="#1b3966" stroke-width="3" marker-end="url(#arrow)" />
    <circle cx="860" cy="340" r="20" fill="#deebf7" stroke="#1b3966" stroke-width="3" />
    <text x="860" y="347" font-size="24" text-anchor="middle" fill="black">(4,1)</text>
    <path d="M 850,357 L 850,364.5 Q 850,367 852.5,375.25 L 857.5,391.75 L 860,400" fill="none" stroke="#1b3966" stroke-width="3" stroke-dasharray="10,5" marker-end="url(#arrow)" />
    <path d="M 870,357 L 970,560" fill="none" stroke="#1b3966" stroke-width="3" marker-end="url(#arrow)" />
    <circle cx="497" cy="260" r="20" fill="#deebf7" stroke="#1b3966" stroke-width="3" />
    <text x="497" y="267" font-size="24" text-anchor="middle" fill="black">(5,4)</text>
    <path d="M 487,277 L 132,320" fill="none" stroke="#1b3966" stroke-width="3" stroke-dasharray="10,5" marker-end="url(#arrow)" />
    <path d="M 507,277 L 507,284.5 Q 507,287 477.429,292.056 L 343.571,314.944 L 314,320" fill="none" stroke="#1b3966" stroke-width="3" marker-end="url(#arrow)" />
    <circle cx="497" cy="180" r="20" fill="#deebf7" stroke="#1b3966" stroke-width="3" />
    <text x="497" y="187" font-size="24" text-anchor="middle" fill="black">(5,3)</text>
    <path d="M 487,197 L 487,204.5 Q 487,207 489.5,215.25 L 494.5,231.75 L 497,240" fill="none" stroke="#1b3966" stroke-width="3" stroke-dasharray="10,5" marker-end="url(#arrow)" />
    <path d="M 507,197 L 507,204.5 Q 507,207 494.5,210.25 L 469.5,216.75 Q 457,220 457,240 L 457,280 Q 457,300 466.75,305 L 486.25,315 L 496,320" fill="none" stroke="#1b3966" stroke-width="3" marker-end="url(#arrow)" />
    <circle cx="497" cy="100" r="20" fill="#deebf7" stroke="#1b3966" stroke-width="3" />
    <text x="497" y="107" font-size="24" text-anchor="middle" fill="black">(5,2)</text>
    <path d="M 487,117 L 487,124.5 Q 487,127 489.5,135.25 L 494.5,151.75 L 497,160" fill="none" stroke="#1b3966" stroke-width="3" stroke-dasharray="10,5" marker-end="url(#arrow)" />
    <path d="M 507,117 L 678,320" fill="none" stroke="#1b3966" stroke-width="3" marker-end="url(#arrow)" />
    <circle cx="497" cy="20" r="20" fill="#deebf7" stroke="#1b3966" stroke-width="3" />
    <text x="497" y="27" font-size="24" text-anchor="middle" fill="black">(5,1)</text>
    <path d="M 487,37 L 487,44.5 Q 487,47 489.5,55.25 L 494.5,71.75 L 497,80" fill="none" stroke="#1b3966" stroke-width="3" stroke-dasharray="10,5" marker-end="url(#arrow)" />
    <path d="M 507,37 L 860,320" fill="none" stroke="#1b3966" stroke-width="3" marker-end="url(#arrow)" />
    <rect x="305" y="800" width="30" height="40" fill="#deebf7" stroke="#1b3966" stroke-width="3" />
    <text x="320" y="827" font-size="24" text-anchor="middle" fill="black">0</text>
    <rect x="670" y="800" width="30" height="40" fill="#deebf7" stroke="#1b3966" stroke-width="3" />
    <text x="685" y="827" font-size="24" text-anchor="middle" fill="black">1</text>
</svg>