<svg xmlns="http://www.w3.org/2000/svg" width="1064" height="1523" viewBox="-38 -21.5 1064 1523">
<defs>
    <marker id="arrow" viewBox="-10 -4 20 8" markerWidth="10" markerHeight="10" orient="auto">
        <polygon points="-10,-4 0,0 -10,4" fill="#1b3966" stroke="none" />
    </marker>
</defs>
    <circle cx="315" cy="980" r="20" fill="#deebf7" stroke="#1b3966" stroke-width="3" />
    <text x="315" y="987" font-size="24" text-anchor="middle" fill="black">(2,1)</text>
    <path d="M 305,997 L 305,1004.5 Q 305,1007 324.788,1029.55 L 665.212,1417.45 L 685,1440" fill="none" stroke="#1b3966" stroke-width="3" stroke-dasharray="10,5" marker-end="url(#arrow)" />
    <path d="M 325,997 L 685,1440" fill="none" stroke="#1b3966" stroke-width="3" marker-end="url(#arrow)" />
    <circle cx="680" cy="980" r="20" fill="#deebf7" stroke="#1b3966" stroke-width="3" />
    <text x="680" y="987" font-size="24" text-anchor="middle" fill="black">(2,1)</text>
    <path d="M 670,997 L 320,1440" fill="none" stroke="#1b3966" stroke-width="3" stroke-dasharray="10,5" marker-end="url(#arrow)" />
    <path d="M 690,997 L 690,1004.5 Q 690,1007 689.654,1037 L 685.346,1410 L 685,1440" fill="none" stroke="#1b3966" stroke-width="3" marker-end="url(#arrow)" />
    <circle cx="59" cy="900" r="20" fill="#deebf7" stroke="#1b3966" stroke-width="3" />
    <text x="59" y="907" font-size="24" text-anchor="middle" fill="black">(3,2)</text>
    <path d="M 49,917 L 49,924.5 Q 49,927 78.7298,931.018 L 278.27,957.982 L 308,962" fill="none" stroke="#1b3966" stroke-width="3" stroke-dasharray="10,5" marker-end="url(#arrow)" />
    <path d="M 69,917 L 685,1440" fill="none" stroke="#1b3966" stroke-width="3" marker-end="url(#arrow)" />
    <circle cx="168" cy="900" r="20" fill="#deebf7" stroke="#1b3966" stroke-width="3" />
    <text x="168" y="907" font-size="24" text-anchor="middle" fill="black">(3,2)</text>
    <path d="M 158,917 L 158,924.5 Q 158,927 187.931,929.038 L 642.069,959.962 L 672,962" fill="none" stroke="#1b3966" stroke-width="3" stroke-dasharray="10,5" marker-end="url(#arrow)" />
    <path d="M 178,917 L 311,961" fill="none" stroke="#1b3966" stroke-width="3" marker-end="url(#arrow)" />
    <circle cx="277" cy="900" r="20" fill="#deebf7" stroke="#1b3966" stroke-width="3" />
    <text x="277" y="907" font-size="24" text-anchor="middle" fill="black">(3,2)</text>
    <path d="M 267,917 L 267,924.5 Q 267,927 270.083,956.841 L 316.917,1410.16 L 320,1440" fill="none" stroke="#1b3966" stroke-width="3" stroke-dasharray="10,5" marker-end="url(#arrow)" />
    <path d="M 287,917 L 695.041,938.427 Q 725,940 725,970 L 725,1390 Q 725,1420 715,1425 L 695,1435 L 685,1440" fill="none" stroke="#1b3966" stroke-width="3" marker-end="url(#arrow)" />
    <circle cx="386" cy="900" r="20" fill="#deebf7" stroke="#1b3966" stroke-width="3" />
    <text x="386" y="907" font-size="24" text-anchor="middle" fill="black">(3,2)</text>
    <path d="M 376,917 L 376,924.5 Q 376,927 391.479,952.698 L 669.521,1414.3 L 685,1440" fill="none" stroke="#1b3966" stroke-width="3" stroke-dasharray="10,5" marker-end="url(#arrow)" />
    <path d="M 396,917 L 676,961" fill="none" stroke="#1b3966" stroke-width="3" marker-end="url(#arrow)" />
    <circle cx="495" cy="900" r="20" fill="#deebf7" stroke="#1b3966" stroke-width="3" />
    <text x="495" y="907" font-size="24" text-anchor="middle" fill="black">(3,2)</text>
    <path d="M 485,917 L 315,960" fill="none" stroke="#1b3966" stroke-width="3" stroke-dasharray="10,5" marker-end="url(#arrow)" />
    <path d="M 505,917 L 505,924.5 Q 505,927 475.474,932.312 L 345.526,955.688 L 316,961" fill="none" stroke="#1b3966" stroke-width="3" marker-end="url(#arrow)" />
    <circle cx="604" cy="900" r="20" fill="#deebf7" stroke="#1b3966" stroke-width="3" />
    <text x="604" y="907" font-size="24" text-anchor="middle" fill="black">(3,2)</text>
    <path d="M 594,917 L 320,1440" fill="none" stroke="#1b3966" stroke-width="3" stroke-dasharray="10,5" marker-end="url(#arrow)" />
    <path d="M 614,917 L 682,961" fill="none" stroke="#1b3966" stroke-width="3" marker-end="url(#arrow)" />
    <circle cx="713" cy="900" r="20" fill="#deebf7" stroke="#1b3966" stroke-width="3" />
    <text x="713" y="907" font-size="24" text-anchor="middle" fill="black">(3,2)</text>
    <path d="M 703,917 L 685,1440" fill="none" stroke="#1b3966" stroke-width="3" stroke-dasharray="10,5" marker-end="url(#arrow)" />
    <path d="M 723,917 L 723,924.5 Q 723,927 720.784,956.918 L 687.216,1410.08 L 685,1440" fill="none" stroke="#1b3966" stroke-width="3" marker-end="url(#arrow)" />
    <circle cx="822" cy="900" r="20" fill="#deebf7" stroke="#1b3966" stroke-width="3" />
    <text x="822" y="907" font-size="24" text-anchor="middle" fill="black">(3,2)</text>
    <path d="M 812,917 L 688,962" fill="none" stroke="#1b3966" stroke-width="3" stroke-dasharray="10,5" marker-end="url(#arrow)" />
    <path d="M 832,917 L 832,924.5 Q 832,927 823.736,955.839 L 693.264,1411.16 L 685,1440" fill="none" stroke="#1b3966" stroke-width="3" marker-end="url(#arrow)" />
    <circle cx="931" cy="900" r="20" fill="#deebf7" stroke="#1b3966" stroke-width="3" />
    <text x="931" y="907" font-size="24" text-anchor="middle" fill="black">(3,2)</text>
    <path d="M 921,917 L 320,1440" fill="none" stroke="#1b3966" stroke-width="3" stroke-dasharray="10,5" marker-end="url(#arrow)" />
    <path d="M 941,917 L 941,924.5 Q 941,927 911.051,928.75 L 354.949,961.25 L 325,963" fill="none" stroke="#1b3966" stroke-width="3" marker-end="url(#arrow)" />
    <circle cx="18" cy="820" r="20" fill="#deebf7" stroke="#1b3966" stroke-width="3" />
    <text x="18" y="827" font-size="24" text-anchor="middle" fill="black">(3,1)</text>
    <path d="M 8,837 L 8,844.5 Q 8,847 10.75,850.25 L 16.25,856.75 Q 19,860 19,880 L 19,920 Q 19,940 48.9041,942.396 L 276.096,960.604 L 306,963" fill="none" stroke="#1b3966" stroke-width="3" stroke-dasharray="10,5" marker-end="url(#arrow)" />
    <path d="M 28,837 L 24.25,854.25 Q 23,860 23,880 L 23,920 Q 23,940 52.9104,942.317 L 277.09,959.683 L 307,962" fill="none" stroke="#1b3966" stroke-width="3" marker-end="url(#arrow)" />
    <circle cx="86" cy="820" r="20" fill="#deebf7" stroke="#1b3966" stroke-width="3" />
    <text x="86" y="827" font-size="24" text-anchor="middle" fill="black">(3,1)</text>
    <path d="M 76,837 L 59,880" fill="none" stroke="#1b3966" stroke-width="3" stroke-dasharray="10,5" marker-end="url(#arrow)" />
    <path d="M 96,837 L 946.01,859.216 Q 976,860 976,890 L 976,1390 Q 976,1420 946.071,1422.06 L 714.929,1437.94 L 685,1440" fill="none" stroke="#1b3966" stroke-width="3" marker-end="url(#arrow)" />
    <circle cx="154" cy="820" r="20" fill="#deebf7" stroke="#1b3966" stroke-width="3" />
    <text x="154" y="827" font-size="24" text-anchor="middle" fill="black">(3,1)</text>
    <path d="M 144,837 L 144,844.5 Q 144,847 168.73,863.983 L 285.27,944.017 L 310,961" fill="none" stroke="#1b3966" stroke-width="3" stroke-dasharray="10,5" marker-end="url(#arrow)" />
    <path d="M 164,837 L 208.25,854.25 Q 223,860 223,880 L 223,920 Q 223,940 252.961,941.538 L 641.039,961.462 L 671,963" fill="none" stroke="#1b3966" stroke-width="3" marker-end="url(#arrow)" />
    <circle cx="222" cy="820" r="20" fill="#deebf7" stroke="#1b3966" stroke-width="3" />
    <text x="222" y="827" font-size="24" text-anchor="middle" fill="black">(3,1)</text>
    <path d="M 212,837 L 212,844.5 Q 212,847 241.996,847.508 L 950.004,859.492 Q 980,860 980,890 L 980,1390 Q 980,1420 950.069,1422.03 L 714.931,1437.97 L 685,1440" fill="none" stroke="#1b3966" stroke-width="3" stroke-dasharray="10,5" marker-end="url(#arrow)" />
    <path d="M 232,837 L 228.25,854.25 Q 227,860 227,880 L 227,920 Q 227,940 256.967,941.408 L 644.033,959.592 L 674,961" fill="none" stroke="#1b3966" stroke-width="3" marker-end="url(#arrow)" />
    <circle cx="290" cy="820" r="20" fill="#deebf7" stroke="#1b3966" stroke-width="3" />
    <text x="290" y="827" font-size="24" text-anchor="middle" fill="black">(3,1)</text>
    <path d="M 280,837 L 168,880" fill="none" stroke="#1b3966" stroke-width="3" stroke-dasharray="10,5" marker-end="url(#arrow)" />
    <path d="M 300,837 L 313,961" fill="none" stroke="#1b3966" stroke-width="3" marker-end="url(#arrow)" />
    <circle cx="358" cy="820" r="20" fill="#deebf7" stroke="#1b3966" stroke-width="3" />
    <text x="358" y="827" font-size="24" text-anchor="middle" fill="black">(3,1)</text>
    <path d="M 348,837 L 348,844.5 Q 348,847 357.5,855.25 L 376.5,871.75 L 386,880" fill="none" stroke="#1b3966" stroke-width="3" stroke-dasharray="10,5" marker-end="url(#arrow)" />
    <path d="M 368,837 L 368,844.5 Q 368,847 355.157,874.112 L 326.843,933.888 L 314,961" fill="none" stroke="#1b3966" stroke-width="3" marker-end="url(#arrow)" />
    <circle cx="426" cy="820" r="20" fill="#deebf7" stroke="#1b3966" stroke-width="3" />
    <text x="426" y="827" font-size="24" text-anchor="middle" fill="black">(3,1)</text>
    <path d="M 416,837 L 43.951,858.286 Q 14,860 14,890 L 14,1390 Q 14,1420 43.9361,1421.96 L 290.064,1438.04 L 320,1440" fill="none" stroke="#1b3966" stroke-width="3" stroke-dasharray="10,5" marker-end="url(#arrow)" />
    <path d="M 436,837 L 678,961" fill="none" stroke="#1b3966" stroke-width="3" marker-end="url(#arrow)" />
    <circle cx="494" cy="820" r="20" fill="#deebf7" stroke="#1b3966" stroke-width="3" />
    <text x="494" y="827" font-size="24" text-anchor="middle" fill="black">(3,1)</text>
    <path d="M 484,837 L 484,844.5 Q 484,847 484.5,856 L 485.5,874 L 486,883" fill="none" stroke="#1b3966" stroke-width="3" stroke-dasharray="10,5" marker-end="url(#arrow)" />
    <path d="M 504,837 L 685,1440" fill="none" stroke="#1b3966" stroke-width="3" marker-end="url(#arrow)" />
    <circle cx="562" cy="820" r="20" fill="#deebf7" stroke="#1b3966" stroke-width="3" />
    <text x="562" y="827" font-size="24" text-anchor="middle" fill="black">(3,1)</text>
    <path d="M 552,837 L 552,844.5 Q 552,847 577.75,850.25 L 629.25,856.75 Q 655,860 655,880 L 655,920 Q 655,940 661.25,945 L 673.75,955 L 680,960" fill="none" stroke="#1b3966" stroke-width="3" stroke-dasharray="10,5" marker-end="url(#arrow)" />
    <path d="M 572,837 L 954.047,858.328 Q 984,860 984,890 L 984,1390 Q 984,1420 954.067,1422 L 714.933,1438 L 685,1440" fill="none" stroke="#1b3966" stroke-width="3" marker-end="url(#arrow)" />
    <circle cx="630" cy="820" r="20" fill="#deebf7" stroke="#1b3966" stroke-width="3" />
    <text x="630" y="827" font-size="24" text-anchor="middle" fill="black">(3,1)</text>
    <path d="M 620,837 L 604,880" fill="none" stroke="#1b3966" stroke-width="3" stroke-dasharray="10,5" marker-end="url(#arrow)" />
    <path d="M 640,837 L 640,844.5 Q 640,847 617.5,850.25 L 572.5,856.75 Q 550,860 550,880 L 550,920 Q 550,940 520.121,942.693 L 346.879,958.307 L 317,961" fill="none" stroke="#1b3966" stroke-width="3" marker-end="url(#arrow)" />
    <circle cx="698" cy="820" r="20" fill="#deebf7" stroke="#1b3966" stroke-width="3" />
    <text x="698" y="827" font-size="24" text-anchor="middle" fill="black">(3,1)</text>
    <path d="M 688,837 L 688,844.5 Q 688,847 694.25,855.25 L 706.75,871.75 L 713,880" fill="none" stroke="#1b3966" stroke-width="3" stroke-dasharray="10,5" marker-end="url(#arrow)" />
    <path d="M 708,837 L 708,844.5 Q 708,847 695.75,850.25 L 671.25,856.75 Q 659,860 659,880 L 659,920 Q 659,940 665.75,945.25 L 679.25,955.75 L 686,961" fill="none" stroke="#1b3966" stroke-width="3" marker-end="url(#arrow)" />
    <circle cx="766" cy="820" r="20" fill="#deebf7" stroke="#1b3966" stroke-width="3" />
    <text x="766" y="827" font-size="24" text-anchor="middle" fill="black">(3,1)</text>
    <path d="M 756,837 L 756,844.5 Q 756,847 770.25,856 L 798.75,874 L 813,883" fill="none" stroke="#1b3966" stroke-width="3" stroke-dasharray="10,5" marker-end="url(#arrow)" />
    <path d="M 776,837 L 776,844.5 Q 776,847 748.75,850.25 L 694.25,856.75 Q 667,860 667,880 L 667,920 Q 667,940 637.055,941.812 L 349.945,959.188 L 320,961" fill="none" stroke="#1b3966" stroke-width="3" marker-end="url(#arrow)" />
    <circle cx="834" cy="820" r="20" fill="#deebf7" stroke="#1b3966" stroke-width="3" />
    <text x="834" y="827" font-size="24" text-anchor="middle" fill="black">(3,1)</text>
    <path d="M 824,837 L 824,844.5 Q 824,847 850.75,855.25 L 904.25,871.75 L 931,880" fill="none" stroke="#1b3966" stroke-width="3" stroke-dasharray="10,5" marker-end="url(#arrow)" />
    <path d="M 844,837 L 844,844.5 Q 844,847 825,850.25 L 787,856.75 Q 768,860 768,880 L 768,920 Q 768,940 738.036,941.478 L 351.964,960.522 L 322,962" fill="none" stroke="#1b3966" stroke-width="3" marker-end="url(#arrow)" />
    <circle cx="902" cy="820" r="20" fill="#deebf7" stroke="#1b3966" stroke-width="3" />
    <text x="902" y="827" font-size="24" text-anchor="middle" fill="black">(3,1)</text>
    <path d="M 892,837 L 505,883" fill="none" stroke="#1b3966" stroke-width="3" stroke-dasharray="10,5" marker-end="url(#arrow)" />
    <path d="M 912,837 L 912,844.5 Q 912,847 903.25,850.25 L 885.75,856.75 Q 877,860 877,880 L 877,920 Q 877,940 847.024,941.19 L 352.976,960.81 L 323,962" fill="none" stroke="#1b3966" stroke-width="3" marker-end="url(#arrow)" />
    <circle cx="970" cy="820" r="20" fill="#deebf7" stroke="#1b3966" stroke-width="3" />
    <text x="970" y="827" font-size="24" text-anchor="middle" fill="black">(3,1)</text>
    <path d="M 960,837 L 832,883" fill="none" stroke="#1b3966" stroke-width="3" stroke-dasharray="10,5" marker-end="url(#arrow)" />
    <path d="M 980,837 L 980,844.5 Q 980,847 955.25,850.25 L 905.75,856.75 Q 881,860 881,880 L 881,920 Q 881,940 851.213,943.568 L 718.787,959.432 L 689,963" fill="none" stroke="#1b3966" stroke-width="3" marker-end="url(#arrow)" />
    <circle cx="132" cy="500" r="20" fill="#deebf7" stroke="#1b3966" stroke-width="3" />
    <text x="132" y="507" font-size="24" text-anchor="middle" fill="black">(4,3)</text>
    <path d="M 122,517 L 18,800" fill="none" stroke="#1b3966" stroke-width="3" stroke-dasharray="10,5" marker-end="url(#arrow)" />
    <path d="M 142,517 L 142,524.5 Q 142,527 135.972,556.388 L 92.0283,770.612 L 86,800" fill="none" stroke="#1b3966" stroke-width="3" marker-end="url(#arrow)" />
    <circle cx="314" cy="500" r="20" fill="#deebf7" stroke="#1b3966" stroke-width="3" />
    <text x="314" y="507" font-size="24" text-anchor="middle" fill="black">(4,3)</text>
    <path d="M 304,517 L 222,800" fill="none" stroke="#1b3966" stroke-width="3" stroke-dasharray="10,5" marker-end="url(#arrow)" />
    <path d="M 324,517 L 324,524.5 Q 324,527 319.382,556.642 L 285.618,773.358 L 281,803" fill="none" stroke="#1b3966" stroke-width="3" marker-end="url(#arrow)" />
    <circle cx="496" cy="500" r="20" fill="#deebf7" stroke="#1b3966" stroke-width="3" />
    <text x="496" y="507" font-size="24" text-anchor="middle" fill="black">(4,3)</text>
    <path d="M 486,517 L 426,800" fill="none" stroke="#1b3966" stroke-width="3" stroke-dasharray="10,5" marker-end="url(#arrow)" />
    <path d="M 506,517 L 506,524.5 Q 506,527 488.056,551.042 L 317.944,778.958 L 300,803" fill="none" stroke="#1b3966" stroke-width="3" marker-end="url(#arrow)" />
    <circle cx="678" cy="500" r="20" fill="#deebf7" stroke="#1b3966" stroke-width="3" />
    <text x="678" y="507" font-size="24" text-anchor="middle" fill="black">(4,3)</text>
    <path d="M 668,517 L 630,800" fill="none" stroke="#1b3966" stroke-width="3" stroke-dasharray="10,5" marker-end="url(#arrow)" />
    <path d="M 688,517 L 698,800" fill="none" stroke="#1b3966" stroke-width="3" marker-end="url(#arrow)" />
    <circle cx="860" cy="500" r="20" fill="#deebf7" stroke="#1b3966" stroke-width="3" />
    <text x="860" y="507" font-size="24" text-anchor="middle" fill="black">(4,3)</text>
    <path d="M 850,517 L 766,800" fill="none" stroke="#1b3966" stroke-width="3" stroke-dasharray="10,5" marker-end="url(#arrow)" />
    <path d="M 870,517 L 870,524.5 Q 870,527 866.078,556.743 L 837.922,770.257 L 834,800" fill="none" stroke="#1b3966" stroke-width="3" marker-end="url(#arrow)" />
    <circle cx="132" cy="420" r="20" fill="#deebf7" stroke="#1b3966" stroke-width="3" />
    <text x="132" y="427" font-size="24" text-anchor="middle" fill="black">(4,2)</text>
    <path d="M 122,437 L 122,444.5 Q 122,447 124.5,455.25 L 129.5,471.75 L 132,480" fill="none" stroke="#1b3966" stroke-width="3" stroke-dasharray="10,5" marker-end="url(#arrow)" />
    <path d="M 142,437 L 199.75,454.25 Q 219,460 219,480 L 219,520 Q 219,540 212.859,569.365 L 170.141,773.635 L 164,803" fill="none" stroke="#1b3966" stroke-width="3" marker-end="url(#arrow)" />
    <circle cx="314" cy="420" r="20" fill="#deebf7" stroke="#1b3966" stroke-width="3" />
    <text x="314" y="427" font-size="24" text-anchor="middle" fill="black">(4,2)</text>
    <path d="M 304,437 L 304,444.5 Q 304,447 306.5,455.25 L 311.5,471.75 L 314,480" fill="none" stroke="#1b3966" stroke-width="3" stroke-dasharray="10,5" marker-end="url(#arrow)" />
    <path d="M 324,437 L 324,444.5 Q 324,447 299.75,450.25 L 251.25,456.75 Q 227,460 227,480 L 227,520 Q 227,540 230.599,569.783 L 252.401,750.217 Q 256,780 256,800 L 256,840 Q 256,860 261.25,865 L 271.75,875 L 277,880" fill="none" stroke="#1b3966" stroke-width="3" marker-end="url(#arrow)" />
    <circle cx="496" cy="420" r="20" fill="#deebf7" stroke="#1b3966" stroke-width="3" />
    <text x="496" y="427" font-size="24" text-anchor="middle" fill="black">(4,2)</text>
    <path d="M 486,437 L 486,444.5 Q 486,447 488.5,455.25 L 493.5,471.75 L 496,480" fill="none" stroke="#1b3966" stroke-width="3" stroke-dasharray="10,5" marker-end="url(#arrow)" />
    <path d="M 506,437 L 506,444.5 Q 506,447 481.75,450.25 L 433.25,456.75 Q 409,460 409,480 L 409,520 Q 409,540 418.322,568.515 L 484.678,771.485 L 494,800" fill="none" stroke="#1b3966" stroke-width="3" marker-end="url(#arrow)" />
    <circle cx="678" cy="420" r="20" fill="#deebf7" stroke="#1b3966" stroke-width="3" />
    <text x="678" y="427" font-size="24" text-anchor="middle" fill="black">(4,2)</text>
    <path d="M 668,437 L 668,444.5 Q 668,447 670.5,455.25 L 675.5,471.75 L 678,480" fill="none" stroke="#1b3966" stroke-width="3" stroke-dasharray="10,5" marker-end="url(#arrow)" />
    <path d="M 688,437 L 688,444.5 Q 688,447 708.25,450.25 L 748.75,456.75 Q 769,460 769,480 L 769,520 Q 769,540 764.429,569.65 L 736.571,750.35 Q 732,780 732,800 L 732,840 Q 732,860 714.75,860 L 680.25,860 Q 663,860 663,880 L 663,920 Q 663,940 668.25,945.25 L 678.75,955.75 L 684,961" fill="none" stroke="#1b3966" stroke-width="3" marker-end="url(#arrow)" />
    <circle cx="860" cy="420" r="20" fill="#deebf7" stroke="#1b3966" stroke-width="3" />
    <text x="860" y="427" font-size="24" text-anchor="middle" fill="black">(4,2)</text>
    <path d="M 850,437 L 850,444.5 Q 850,447 852.5,455.25 L 857.5,471.75 L 860,480" fill="none" stroke="#1b3966" stroke-width="3" stroke-dasharray="10,5" marker-end="url(#arrow)" />
    <path d="M 870,437 L 892.5,454.25 Q 900,460 900,480 L 900,520 Q 900,540 900.231,569.999 L 901.769,770.001 L 902,800" fill="none" stroke="#1b3966" stroke-width="3" marker-end="url(#arrow)" />
    <circle cx="132" cy="340" r="20" fill="#deebf7" stroke="#1b3966" stroke-width="3" />
    <text x="132" y="347" font-size="24" text-anchor="middle" fill="black">(4,1)</text>
    <path d="M 122,357 L 122,364.5 Q 122,367 124.5,375.25 L 129.5,391.75 L 132,400" fill="none" stroke="#1b3966" stroke-width="3" stroke-dasharray="10,5" marker-end="url(#arrow)" />
    <path d="M 142,357 L 202.75,374.25 Q 223,380 223,400 L 223,440 Q 223,460 223,460 L 223,460 Q 223,460 223,480 L 223,520 Q 223,540 214.47,568.762 L 153.53,774.238 L 145,803" fill="none" stroke="#1b3966" stroke-width="3" marker-end="url(#arrow)" />
    <circle cx="314" cy="340" r="20" fill="#deebf7" stroke="#1b3966" stroke-width="3" />
    <text x="314" y="347" font-size="24" text-anchor="middle" fill="black">(4,1)</text>
    <path d="M 304,357 L 304,364.5 Q 304,367 306.5,375.25 L 311.5,391.75 L 314,400" fill="none" stroke="#1b3966" stroke-width="3" stroke-dasharray="10,5" marker-end="url(#arrow)" />
    <path d="M 324,357 L 384.75,374.25 Q 405,380 405,400 L 405,440 Q 405,460 405,460 L 405,460 Q 405,460 405,480 L 405,520 Q 405,540 399.663,569.522 L 363.337,770.478 L 358,800" fill="none" stroke="#1b3966" stroke-width="3" marker-end="url(#arrow)" />
    <circle cx="496" cy="340" r="20" fill="#deebf7" stroke="#1b3966" stroke-width="3" />
    <text x="496" y="347" font-size="24" text-anchor="middle" fill="black">(4,1)</text>
    <path d="M 486,357 L 486,364.5 Q 486,367 488.5,375.25 L 493.5,391.75 L 496,400" fill="none" stroke="#1b3966" stroke-width="3" stroke-dasharray="10,5" marker-end="url(#arrow)" />
    <path d="M 506,357 L 566.75,374.25 Q 587,380 587,400 L 587,440 Q 587,460 588,460 L 590,460 Q 591,460 591,480 L 591,520 Q 591,540 587.674,569.815 L 565.326,770.185 L 562,800" fill="none" stroke="#1b3966" stroke-width="3" marker-end="url(#arrow)" />
    <circle cx="678" cy="340" r="20" fill="#deebf7" stroke="#1b3966" stroke-width="3" />
    <text x="678" y="347" font-size="24" text-anchor="middle" fill="black">(4,1)</text>
    <path d="M 668,357 L 668,364.5 Q 668,367 670.5,375.25 L 675.5,391.75 L 678,400" fill="none" stroke="#1b3966" stroke-width="3" stroke-dasharray="10,5" marker-end="url(#arrow)" />
    <path d="M 688,357 L 688,364.5 Q 688,367 663.75,370.25 L 615.25,376.75 Q 591,380 591,400 L 591,440 Q 591,460 590,460 L 588,460 Q 587,460 587,480 L 587,520 Q 587,540 579.838,569.133 L 535.162,750.867 Q 528,780 528,800 L 528,840 Q 528,860 506.25,860 L 462.75,860 Q 441,860 441,880 L 441,920 Q 441,940 411.435,945.089 L 348.565,955.911 L 319,961" fill="none" stroke="#1b3966" stroke-width="3" marker-end="url(#arrow)" />
    <circle cx="860" cy="340" r="20" fill="#deebf7" stroke="#1b3966" stroke-width="3" />
    <text x="860" y="347" font-size="24" text-anchor="middle" fill="black">(4,1)</text>
    <path d="M 850,357 L 850,364.5 Q 850,367 852.5,375.25 L 857.5,391.75 L 860,400" fill="none" stroke="#1b3966" stroke-width="3" stroke-dasharray="10,5" marker-end="url(#arrow)" />
    <path d="M 870,357 L 970,800" fill="none" stroke="#1b3966" stroke-width="3" marker-end="url(#arrow)" />
    <circle cx="497" cy="260" r="20" fill="#deebf7" stroke="#1b3966" stroke-width="3" />
    <text x="497" y="267" font-size="24" text-anchor="middle" fill="black">(5,4)</text>
    <path d="M 487,277 L 132,320" fill="none" stroke="#1b3966" stroke-width="3" stroke-dasharray="10,5" marker-end="url(#arrow)" />
    <path d="M 507,277 L 507,284.5 Q 507,287 477.429,292.056 L 343.571,314.944 L 314,320" fill="none" stroke="#1b3966" stroke-width="3" marker-end="url(#arrow)" />
    <circle cx="497" cy="180" r="20" fill="#deebf7" stroke="#1b3966" stroke-width="3" />
    <text x="497" y="187" font-size="24" text-anchor="middle" fill="black">(5,3)</text>
    <path d="M 487,197 L 487,204.5 Q 487,207 489.5,215.25 L 494.5,231.75 L 497,240" fill="none" stroke="#1b3966" stroke-width="3" stroke-dasharray="10,5" marker-end="url(#arrow)" />
    <path d="M 507,197 L 507,204.5 Q 507,207 494.5,210.25 L 469.5,216.75 Q 457,220 457,240 L 457,280 Q 457,300 466.75,305 L 486.25,315 L 496,320" fill="none" stroke="#1b3966" stroke-width="3" marker-end="url(#arrow)" />
    <circle cx="497" cy="100" r="20" fill="#deebf7" stroke="#1b3966" stroke-width="3" />
    <text x="497" y="107" font-size="24" text-anchor="middle" fill="black">(5,2)</text>
    <path d="M 487,117 L 487,124.5 Q 487,127 489.5,135.25 L 494.5,151.75 L 497,160" fill="none" stroke="#1b3966" stroke-width="3" stroke-dasharray="10,5" marker-end="url(#arrow)" />
    <path d="M 507,117 L 678,320" fill="none" stroke="#1b3966" stroke-width="3" marker-end="url(#arrow)" />
    <circle cx="497" cy="20" r="20" fill="#deebf7" stroke="#1b3966" stroke-width="3" />
    <text x="497" y="27" font-size="24" text-anchor="middle" fill="black">(5,1)</text>
    <path d="M 487,37 L 487,44.5 Q 487,47 489.5,55.25 L 494.5,71.75 L 497,80" fill="none" stroke="#1b3966" stroke-width="3" stroke-dasharray="10,5" marker-end="url(#arrow)" />
    <path d="M 507,37 L 860,320" fill="none" stroke="#1b3966" stroke-width="3" marker-end="url(#arrow)" />
    <rect x="305" y="1440" width="30" height="40" fill="#deebf7" stroke="#1b3966" stroke-width="3" />
    <text x="320" y="1467" font-size="24" text-anchor="middle" fill="black">0</text>
    <rect x="670" y="1440" width="30" height="40" fill="#deebf7" stroke="#1b3966" stroke-width="3" />
    <text x="685" y="1467" font-size="24" text-anchor="middle" fill="black">1</text>
</svg>